<?xml version="1.0" encoding="UTF-8"?>
<svg id="Layer_1" data-name="Layer 1" xmlns="http://www.w3.org/2000/svg" viewBox="0 0 468.59 111.57">
  <defs>
    <style>
      .cls-1 {
        fill: #231f20;
        stroke-width: 0px;
      }
    </style>
  </defs>
  <g>
    <path class="cls-1" d="m121.21,68.66h10.73c.29,1.14.43,2.58.43,4.29s-.14,3.08-.43,4.29h-17.17c-.29-1.22-.43-2.65-.43-4.29s.14-3.15.43-4.29h-5.36c-.29-1.22-.43-2.64-.43-4.29s.14-3.15.43-4.29c-.29-1.22-.43-2.64-.43-4.29s.14-3.15.43-4.29c-.29-1.22-.43-2.65-.43-4.29s.14-3.15.43-4.29c-.29-1.22-.43-2.64-.43-4.29s.14-3.15.43-4.29h8.58c.29,1.14.43,2.57.43,4.29s-.14,3.08-.43,4.29c.29,1.14.43,2.57.43,4.29s-.14,3.08-.43,4.29c.29,1.14.43,2.57.43,4.29s-.14,3.08-.43,4.29h3.22c.29,1.14.43,2.57.43,4.29s-.14,3.08-.43,4.29Zm22.96-21.46c0,1.65-.14,3.08-.43,4.29.28,1.14.43,2.57.43,4.29s-.14,3.08-.43,4.29c.28,1.14.43,2.57.43,4.29s-.14,3.08-.43,4.29c.28,1.14.43,2.58.43,4.29s-.14,3.08-.43,4.29h-8.58c-.29-1.22-.43-2.65-.43-4.29s.14-3.15.43-4.29h-3.22c-.29-1.22-.43-2.64-.43-4.29s.14-3.15.43-4.29h3.22c-.29-1.22-.43-2.64-.43-4.29s.14-3.15.43-4.29c-.29-1.22-.43-2.65-.43-4.29s.14-3.15.43-4.29c-.29-1.22-.43-2.64-.43-4.29s.14-3.15.43-4.29h8.58c.28,1.14.43,2.57.43,4.29s-.14,3.08-.43,4.29c.28,1.14.43,2.57.43,4.29Z"/>
    <path class="cls-1" d="m186.23,72.95c0,1.64-.14,3.08-.43,4.29h-25.75c-.29-1.22-.43-2.65-.43-4.29s.14-3.15.43-4.29h8.58c-.29-1.22-.43-2.64-.43-4.29s.14-3.15.43-4.29c-.29-1.22-.43-2.64-.43-4.29s.14-3.15.43-4.29c-.29-1.22-.43-2.65-.43-4.29s.14-3.15.43-4.29h-6.44c-.29-1.22-.43-2.64-.43-4.29s.14-3.15.43-4.29h15.02c.29,1.14.43,2.57.43,4.29s-.14,3.08-.43,4.29c.29,1.14.43,2.57.43,4.29s-.14,3.08-.43,4.29c.29,1.14.43,2.57.43,4.29s-.14,3.08-.43,4.29c.29,1.14.43,2.57.43,4.29s-.14,3.08-.43,4.29h8.58c.29,1.14.43,2.58.43,4.29Zm-17.59-47.21c-.29-1.22-.43-2.64-.43-4.29s.14-3.15.43-4.29h8.58c.29,1.14.43,2.57.43,4.29s-.14,3.08-.43,4.29h-8.58Z"/>
    <path class="cls-1" d="m230,51.5h-8.58c-.29-1.22-.43-2.65-.43-4.29s.14-3.15.43-4.29h-17.16c-.29-1.22-.43-2.64-.43-4.29s.14-3.15.43-4.29h30.04c.29,1.14.43,2.57.43,4.29s-.14,3.08-.43,4.29h-4.29c.29,1.14.43,2.57.43,4.29s-.14,3.08-.43,4.29Zm4.72,21.46c0,1.64-.14,3.08-.43,4.29h-30.04c-.29-1.22-.43-2.65-.43-4.29s.14-3.15.43-4.29c-.29-1.22-.43-2.64-.43-4.29s.14-3.15.43-4.29h8.58c.29,1.14.43,2.57.43,4.29s-.14,3.08-.43,4.29h21.46c.29,1.14.43,2.58.43,4.29Zm-13.3-12.87h-8.58c-.29-1.22-.43-2.64-.43-4.29s.14-3.15.43-4.29h8.58c.29,1.14.43,2.57.43,4.29s-.14,3.08-.43,4.29Z"/>
    <path class="cls-1" d="m278.49,68.66c.29,1.14.43,2.58.43,4.29s-.14,3.08-.43,4.29h-17.16c-.29-1.22-.43-2.65-.43-4.29s.14-3.15.43-4.29h-4.29c-.29-1.22-.43-2.64-.43-4.29s.14-3.15.43-4.29c-.29-1.22-.43-2.64-.43-4.29s.14-3.15.43-4.29c-.29-1.22-.43-2.65-.43-4.29s.14-3.15.43-4.29h-8.58c-.29-1.22-.43-2.64-.43-4.29s.14-3.15.43-4.29h8.58c-.29-1.22-.43-2.65-.43-4.29s.14-3.15.43-4.29c-.29-1.22-.43-2.64-.43-4.29s.14-3.15.43-4.29h8.58c.29,1.14.43,2.57.43,4.29s-.14,3.08-.43,4.29c.29,1.14.43,2.58.43,4.29s-.14,3.08-.43,4.29h12.87c.29,1.14.43,2.57.43,4.29s-.14,3.08-.43,4.29h-12.87c.29,1.14.43,2.57.43,4.29s-.14,3.08-.43,4.29c.29,1.14.43,2.57.43,4.29s-.14,3.08-.43,4.29c.29,1.14.43,2.57.43,4.29s-.14,3.08-.43,4.29h12.87Z"/>
    <path class="cls-1" d="m329.13,60.08h-3.22c.29,1.14.43,2.57.43,4.29s-.14,3.08-.43,4.29h-5.36c.29,1.14.43,2.58.43,4.29s-.14,3.08-.43,4.29h-17.17c-.29-1.22-.43-2.65-.43-4.29s.14-3.15.43-4.29h-5.36c-.29-1.22-.43-2.64-.43-4.29s.14-3.15.43-4.29h-3.22c-.29-1.22-.43-2.64-.43-4.29s.14-3.15.43-4.29h3.22c-.29-1.22-.43-2.65-.43-4.29s.14-3.15.43-4.29h5.36c-.29-1.22-.43-2.64-.43-4.29s.14-3.15.43-4.29h17.17c.29,1.14.43,2.57.43,4.29s-.14,3.08-.43,4.29h5.36c.29,1.14.43,2.57.43,4.29s-.14,3.08-.43,4.29h3.22c.28,1.14.43,2.57.43,4.29s-.14,3.08-.43,4.29Zm-8.58,0c-.29-1.22-.43-2.64-.43-4.29s.14-3.15.43-4.29h-3.22c-.29-1.22-.43-2.65-.43-4.29s.14-3.15.43-4.29h-10.73c.29,1.14.43,2.57.43,4.29s-.14,3.08-.43,4.29h-3.22c.29,1.14.43,2.57.43,4.29s-.14,3.08-.43,4.29h3.22c.29,1.14.43,2.57.43,4.29s-.14,3.08-.43,4.29h10.73c-.29-1.22-.43-2.64-.43-4.29s.14-3.15.43-4.29h3.22Z"/>
    <path class="cls-1" d="m375.47,60.08h-4.29c.28,1.14.43,2.57.43,4.29s-.15,3.08-.43,4.29h-4.29c.28,1.14.43,2.58.43,4.29s-.14,3.08-.43,4.29h-17.17c.28,1.14.43,2.57.43,4.29s-.15,3.07-.43,4.29c.28,1.14.43,2.57.43,4.29s-.15,3.07-.43,4.29h-8.58c-.29-1.22-.43-2.65-.43-4.29s.14-3.15.43-4.29c-.29-1.22-.43-2.65-.43-4.29s.14-3.15.43-4.29c-.29-1.22-.43-2.65-.43-4.29s.14-3.15.43-4.29c-.29-1.22-.43-2.64-.43-4.29s.14-3.15.43-4.29c-.29-1.22-.43-2.64-.43-4.29s.14-3.15.43-4.29c-.29-1.22-.43-2.65-.43-4.29s.14-3.15.43-4.29c-.29-1.22-.43-2.64-.43-4.29s.14-3.15.43-4.29h8.58c.28,1.14.43,2.57.43,4.29s-.15,3.08-.43,4.29h4.29c.28,1.14.43,2.57.43,4.29s-.15,3.08-.43,4.29h-4.29c.28,1.14.43,2.57.43,4.29s-.15,3.08-.43,4.29c.28,1.14.43,2.57.43,4.29s-.15,3.08-.43,4.29h12.87c-.29-1.22-.43-2.64-.43-4.29s.14-3.15.43-4.29h4.29c-.29-1.22-.43-2.64-.43-4.29s.14-3.15.43-4.29h-4.29c-.29-1.22-.43-2.65-.43-4.29s.14-3.15.43-4.29h-8.58c-.29-1.22-.43-2.64-.43-4.29s.14-3.15.43-4.29h12.87c.28,1.14.43,2.57.43,4.29s-.14,3.08-.43,4.29h4.29c.28,1.14.43,2.57.43,4.29s-.15,3.08-.43,4.29h4.29c.28,1.14.43,2.57.43,4.29s-.15,3.08-.43,4.29Z"/>
    <path class="cls-1" d="m417.95,72.95c0,1.64-.14,3.08-.43,4.29h-25.75c-.29-1.22-.43-2.65-.43-4.29s.14-3.15.43-4.29h8.58c-.29-1.22-.43-2.64-.43-4.29s.14-3.15.43-4.29c-.29-1.22-.43-2.64-.43-4.29s.14-3.15.43-4.29c-.29-1.22-.43-2.65-.43-4.29s.14-3.15.43-4.29h-6.44c-.29-1.22-.43-2.64-.43-4.29s.14-3.15.43-4.29h15.02c.29,1.14.43,2.57.43,4.29s-.14,3.08-.43,4.29c.29,1.14.43,2.57.43,4.29s-.14,3.08-.43,4.29c.29,1.14.43,2.57.43,4.29s-.14,3.08-.43,4.29c.29,1.14.43,2.57.43,4.29s-.14,3.08-.43,4.29h8.58c.28,1.14.43,2.58.43,4.29Zm-17.59-47.21c-.29-1.22-.43-2.64-.43-4.29s.14-3.15.43-4.29h8.58c.29,1.14.43,2.57.43,4.29s-.14,3.08-.43,4.29h-8.58Z"/>
    <path class="cls-1" d="m468.59,72.95c0,1.64-.15,3.08-.43,4.29h-8.58c-.29-1.22-.43-2.65-.43-4.29s.14-3.15.43-4.29h-4.29c-.29-1.22-.43-2.64-.43-4.29s.14-3.15.43-4.29h-12.87c.28,1.14.43,2.57.43,4.29s-.14,3.08-.43,4.29h12.87c.29,1.14.43,2.58.43,4.29s-.14,3.08-.43,4.29h-17.17c-.29-1.22-.43-2.65-.43-4.29s.14-3.15.43-4.29h-4.29c-.29-1.22-.43-2.64-.43-4.29s.14-3.15.43-4.29h4.29c-.29-1.22-.43-2.64-.43-4.29s.14-3.15.43-4.29h17.17c-.29-1.22-.43-2.65-.43-4.29s.14-3.15.43-4.29h-15.02c-.29-1.22-.43-2.64-.43-4.29s.14-3.15.43-4.29h19.31c.29,1.14.43,2.57.43,4.29s-.14,3.08-.43,4.29h4.29c.28,1.14.43,2.57.43,4.29s-.14,3.08-.43,4.29c.28,1.14.43,2.57.43,4.29s-.14,3.08-.43,4.29c.28,1.14.43,2.57.43,4.29s-.14,3.08-.43,4.29h4.29c.28,1.14.43,2.58.43,4.29Z"/>
  </g>
  <path class="cls-1" d="m93.66,21.46c0-1.72-.14-3.15-.43-4.29h0c.29-1.22.43-2.65.43-4.29s-.14-3.15-.43-4.29h-9.23c.29-1.22.43-2.65.43-4.3s-.14-3.15-.43-4.29H9.66c-.29,1.15-.43,2.58-.43,4.3s.14,3.08.43,4.29H.43c-.29,1.15-.43,2.58-.43,4.3s.14,3.08.43,4.29H.43c-.29,1.15-.43,2.58-.43,4.29s.14,3.08.43,4.29H.43c-.29,1.15-.43,2.58-.43,4.29s.14,3.08.43,4.29H.43c-.29,1.15-.43,2.58-.43,4.29s.14,3.08.43,4.29c-.29,1.14-.43,2.57-.43,4.29s.14,3.08.43,4.29c-.29,1.14-.43,2.57-.43,4.29s.14,3.08.43,4.29c-.29,1.14-.43,2.57-.43,4.29s.14,3.08.43,4.29c-.29,1.14-.43,2.57-.43,4.29s.14,3.08.43,4.29h9.23c-.29,1.14-.43,2.57-.43,4.29s.14,3.08.43,4.29h25.91c-.29,1.14-.43,2.57-.43,4.29s.14,3.08.43,4.29h9.55c-.29,1.14-.43,2.57-.43,4.29s.14,3.08.43,4.29h9.33c-.29,1.14-.43,2.57-.43,4.29s.14,3.08.43,4.29h8.58c.29-1.22.43-2.64.43-4.29s-.14-3.14-.43-4.29h.21c.29-1.22.43-2.64.43-4.29s-.14-3.14-.43-4.29c.29-1.21.43-2.64.43-4.29s-.14-3.15-.43-4.29h20.76c.29-1.22.43-2.65.43-4.29s-.14-3.15-.43-4.29h9.23c.29-1.22.43-2.65.43-4.29s-.14-3.15-.43-4.29c.29-1.22.43-2.64.43-4.29s-.14-3.15-.43-4.29c.29-1.22.43-2.64.43-4.29s-.14-3.15-.43-4.29c.29-1.22.43-2.64.43-4.29s-.14-3.15-.43-4.29c.29-1.22.43-2.64.43-4.29s-.14-3.15-.43-4.29h0c.29-1.22.43-2.65.43-4.29s-.14-3.15-.43-4.29h0c.29-1.22.43-2.65.43-4.29Zm-39.77,64.5h-8.58c-.29-1.22-.43-2.64-.43-4.29s.14-3.15.43-4.29h8.58c.29,1.14.43,2.57.43,4.29s-.14,3.08-.43,4.29Zm18.99-60.08c.29,1.14.43,2.57.43,4.29s-.14,3.08-.43,4.29h0c.29,1.15.43,2.58.43,4.29s-.14,3.08-.43,4.29c.29,1.14.43,2.57.43,4.29s-.14,3.08-.43,4.29h0c.29,1.15.43,2.58.43,4.29s-.14,3.08-.43,4.29h-28.32c.29,1.14.43,2.57.43,4.29s-.14,3.08-.43,4.29h-8.58c-.29-1.22-.43-2.64-.43-4.29s.14-3.15.43-4.29c-.29-1.22-.43-2.64-.43-4.29s.14-3.15.43-4.29h28.32c-.29-1.22-.43-2.65-.43-4.29s.14-3.15.43-4.29c-.29-1.22-.43-2.64-.43-4.29s.14-3.15.43-4.29h0c-.29-1.22-.43-2.65-.43-4.29s.14-3.15.43-4.29H25.67c.29,1.14.43,2.57.43,4.29s-.14,3.08-.43,4.29h0c.29,1.15.43,2.58.43,4.29s-.14,3.08-.43,4.29h-8.58c-.29-1.22-.43-2.64-.43-4.29s.14-3.15.43-4.29h0c-.29-1.22-.43-2.65-.43-4.29s.14-3.15.43-4.29h0c-.29-1.22-.43-2.65-.43-4.3s.14-3.15.43-4.29h55.79c.29,1.14.43,2.57.43,4.29s-.14,3.08-.43,4.29h0Z"/>
</svg>