<?xml version="1.0" encoding="UTF-8"?>
<svg id="Layer_1" data-name="Layer 1" xmlns="http://www.w3.org/2000/svg" viewBox="0 0 418 96.12">
  <defs>
    <style>
      .cls-1 {
        fill: #231f20;
        stroke-width: 0px;
      }
    </style>
  </defs>
  <g>
    <path class="cls-1" d="m70.62,66.22h10.73c.29,1.14.43,2.58.43,4.29s-.14,3.08-.43,4.29h-17.17c-.29-1.22-.43-2.65-.43-4.29s.14-3.15.43-4.29h-5.36c-.29-1.22-.43-2.64-.43-4.29s.14-3.15.43-4.29c-.29-1.22-.43-2.64-.43-4.29s.14-3.15.43-4.29c-.29-1.22-.43-2.65-.43-4.29s.14-3.15.43-4.29c-.29-1.22-.43-2.64-.43-4.29s.14-3.15.43-4.29h8.58c.29,1.14.43,2.57.43,4.29s-.14,3.08-.43,4.29c.29,1.14.43,2.57.43,4.29s-.14,3.08-.43,4.29c.29,1.14.43,2.57.43,4.29s-.14,3.08-.43,4.29h3.22c.29,1.14.43,2.57.43,4.29s-.14,3.08-.43,4.29Zm22.96-21.46c0,1.65-.14,3.08-.43,4.29.28,1.14.43,2.57.43,4.29s-.14,3.08-.43,4.29c.28,1.14.43,2.57.43,4.29s-.14,3.08-.43,4.29c.28,1.14.43,2.58.43,4.29s-.14,3.08-.43,4.29h-8.58c-.29-1.22-.43-2.65-.43-4.29s.14-3.15.43-4.29h-3.22c-.29-1.22-.43-2.64-.43-4.29s.14-3.15.43-4.29h3.22c-.29-1.22-.43-2.64-.43-4.29s.14-3.15.43-4.29c-.29-1.22-.43-2.65-.43-4.29s.14-3.15.43-4.29c-.29-1.22-.43-2.64-.43-4.29s.14-3.15.43-4.29h8.58c.28,1.14.43,2.57.43,4.29s-.14,3.08-.43,4.29c.28,1.14.43,2.57.43,4.29Z"/>
    <path class="cls-1" d="m135.63,70.51c0,1.64-.14,3.08-.43,4.29h-25.75c-.29-1.22-.43-2.65-.43-4.29s.14-3.15.43-4.29h8.58c-.29-1.22-.43-2.64-.43-4.29s.14-3.15.43-4.29c-.29-1.22-.43-2.64-.43-4.29s.14-3.15.43-4.29c-.29-1.22-.43-2.65-.43-4.29s.14-3.15.43-4.29h-6.44c-.29-1.22-.43-2.64-.43-4.29s.14-3.15.43-4.29h15.02c.29,1.14.43,2.57.43,4.29s-.14,3.08-.43,4.29c.29,1.14.43,2.57.43,4.29s-.14,3.08-.43,4.29c.29,1.14.43,2.57.43,4.29s-.14,3.08-.43,4.29c.29,1.14.43,2.57.43,4.29s-.14,3.08-.43,4.29h8.58c.29,1.14.43,2.58.43,4.29h0Zm-17.59-47.21c-.29-1.22-.43-2.64-.43-4.29s.14-3.15.43-4.29h8.58c.29,1.14.43,2.57.43,4.29s-.14,3.08-.43,4.29h-8.58Z"/>
    <path class="cls-1" d="m179.4,49.05h-8.58c-.29-1.22-.43-2.65-.43-4.29s.14-3.15.43-4.29h-17.16c-.29-1.22-.43-2.64-.43-4.29s.14-3.15.43-4.29h30.04c.29,1.14.43,2.57.43,4.29s-.14,3.08-.43,4.29h-4.29c.29,1.14.43,2.57.43,4.29s-.14,3.08-.43,4.29h-.01Zm4.72,21.46c0,1.64-.14,3.08-.43,4.29h-30.04c-.29-1.22-.43-2.65-.43-4.29s.14-3.15.43-4.29c-.29-1.22-.43-2.64-.43-4.29s.14-3.15.43-4.29h8.58c.29,1.14.43,2.57.43,4.29s-.14,3.08-.43,4.29h21.46c.29,1.14.43,2.58.43,4.29Zm-13.3-12.87h-8.58c-.29-1.22-.43-2.64-.43-4.29s.14-3.15.43-4.29h8.58c.29,1.14.43,2.57.43,4.29s-.14,3.08-.43,4.29Z"/>
    <path class="cls-1" d="m227.89,66.22c.29,1.14.43,2.58.43,4.29s-.14,3.08-.43,4.29h-17.16c-.29-1.22-.43-2.65-.43-4.29s.14-3.15.43-4.29h-4.29c-.29-1.22-.43-2.64-.43-4.29s.14-3.15.43-4.29c-.29-1.22-.43-2.64-.43-4.29s.14-3.15.43-4.29c-.29-1.22-.43-2.65-.43-4.29s.14-3.15.43-4.29h-8.58c-.29-1.22-.43-2.64-.43-4.29s.14-3.15.43-4.29h8.58c-.29-1.22-.43-2.65-.43-4.29s.14-3.15.43-4.29c-.29-1.22-.43-2.64-.43-4.29s.14-3.15.43-4.29h8.58c.29,1.14.43,2.57.43,4.29s-.14,3.08-.43,4.29c.29,1.14.43,2.58.43,4.29s-.14,3.08-.43,4.29h12.87c.29,1.14.43,2.57.43,4.29s-.14,3.08-.43,4.29h-12.87c.29,1.14.43,2.57.43,4.29s-.14,3.08-.43,4.29c.29,1.14.43,2.57.43,4.29s-.14,3.08-.43,4.29c.29,1.14.43,2.57.43,4.29s-.14,3.08-.43,4.29h12.87Z"/>
    <path class="cls-1" d="m278.53,57.64h-3.22c.29,1.14.43,2.57.43,4.29s-.14,3.08-.43,4.29h-5.36c.29,1.14.43,2.58.43,4.29s-.14,3.08-.43,4.29h-17.17c-.29-1.22-.43-2.65-.43-4.29s.14-3.15.43-4.29h-5.36c-.29-1.22-.43-2.64-.43-4.29s.14-3.15.43-4.29h-3.22c-.29-1.22-.43-2.64-.43-4.29s.14-3.15.43-4.29h3.22c-.29-1.22-.43-2.65-.43-4.29s.14-3.15.43-4.29h5.36c-.29-1.22-.43-2.64-.43-4.29s.14-3.15.43-4.29h17.17c.29,1.14.43,2.57.43,4.29s-.14,3.08-.43,4.29h5.36c.29,1.14.43,2.57.43,4.29s-.14,3.08-.43,4.29h3.22c.28,1.14.43,2.57.43,4.29s-.14,3.08-.43,4.29Zm-8.58,0c-.29-1.22-.43-2.64-.43-4.29s.14-3.15.43-4.29h-3.22c-.29-1.22-.43-2.65-.43-4.29s.14-3.15.43-4.29h-10.73c.29,1.14.43,2.57.43,4.29s-.14,3.08-.43,4.29h-3.22c.29,1.14.43,2.57.43,4.29s-.14,3.08-.43,4.29h3.22c.29,1.14.43,2.57.43,4.29s-.14,3.08-.43,4.29h10.73c-.29-1.22-.43-2.64-.43-4.29s.14-3.15.43-4.29c0,0,3.22,0,3.22,0Z"/>
    <path class="cls-1" d="m324.88,57.64h-4.29c.28,1.14.43,2.57.43,4.29s-.15,3.08-.43,4.29h-4.29c.28,1.14.43,2.58.43,4.29s-.14,3.08-.43,4.29h-17.17c.28,1.14.43,2.57.43,4.29s-.15,3.07-.43,4.29c.28,1.14.43,2.57.43,4.29s-.15,3.07-.43,4.29h-8.58c-.29-1.22-.43-2.65-.43-4.29s.14-3.15.43-4.29c-.29-1.22-.43-2.65-.43-4.29s.14-3.15.43-4.29c-.29-1.22-.43-2.65-.43-4.29s.14-3.15.43-4.29c-.29-1.22-.43-2.64-.43-4.29s.14-3.15.43-4.29c-.29-1.22-.43-2.64-.43-4.29s.14-3.15.43-4.29c-.29-1.22-.43-2.65-.43-4.29s.14-3.15.43-4.29c-.29-1.22-.43-2.64-.43-4.29s.14-3.15.43-4.29h8.58c.28,1.14.43,2.57.43,4.29s-.15,3.08-.43,4.29h4.29c.28,1.14.43,2.57.43,4.29s-.15,3.08-.43,4.29h-4.29c.28,1.14.43,2.57.43,4.29s-.15,3.08-.43,4.29c.28,1.14.43,2.57.43,4.29s-.15,3.08-.43,4.29h12.87c-.29-1.22-.43-2.64-.43-4.29s.14-3.15.43-4.29h4.29c-.29-1.22-.43-2.64-.43-4.29s.14-3.15.43-4.29h-4.29c-.29-1.22-.43-2.65-.43-4.29s.14-3.15.43-4.29h-8.58c-.29-1.22-.43-2.64-.43-4.29s.14-3.15.43-4.29h12.87c.28,1.14.43,2.57.43,4.29s-.14,3.08-.43,4.29h4.29c.28,1.14.43,2.57.43,4.29s-.15,3.08-.43,4.29h4.29c.28,1.14.43,2.57.43,4.29s-.15,3.08-.43,4.29h.01Z"/>
    <path class="cls-1" d="m367.36,70.51c0,1.64-.14,3.08-.43,4.29h-25.75c-.29-1.22-.43-2.65-.43-4.29s.14-3.15.43-4.29h8.58c-.29-1.22-.43-2.64-.43-4.29s.14-3.15.43-4.29c-.29-1.22-.43-2.64-.43-4.29s.14-3.15.43-4.29c-.29-1.22-.43-2.65-.43-4.29s.14-3.15.43-4.29h-6.44c-.29-1.22-.43-2.64-.43-4.29s.14-3.15.43-4.29h15.02c.29,1.14.43,2.57.43,4.29s-.14,3.08-.43,4.29c.29,1.14.43,2.57.43,4.29s-.14,3.08-.43,4.29c.29,1.14.43,2.57.43,4.29s-.14,3.08-.43,4.29c.29,1.14.43,2.57.43,4.29s-.14,3.08-.43,4.29h8.58c.28,1.14.43,2.58.43,4.29h.01Zm-17.59-47.21c-.29-1.22-.43-2.64-.43-4.29s.14-3.15.43-4.29h8.58c.29,1.14.43,2.57.43,4.29s-.14,3.08-.43,4.29h-8.58Z"/>
    <path class="cls-1" d="m418,70.51c0,1.64-.15,3.08-.43,4.29h-8.58c-.29-1.22-.43-2.65-.43-4.29s.14-3.15.43-4.29h-4.29c-.29-1.22-.43-2.64-.43-4.29s.14-3.15.43-4.29h-12.87c.28,1.14.43,2.57.43,4.29s-.14,3.08-.43,4.29h12.87c.29,1.14.43,2.58.43,4.29s-.14,3.08-.43,4.29h-17.17c-.29-1.22-.43-2.65-.43-4.29s.14-3.15.43-4.29h-4.29c-.29-1.22-.43-2.64-.43-4.29s.14-3.15.43-4.29h4.29c-.29-1.22-.43-2.64-.43-4.29s.14-3.15.43-4.29h17.17c-.29-1.22-.43-2.65-.43-4.29s.14-3.15.43-4.29h-15.02c-.29-1.22-.43-2.64-.43-4.29s.14-3.15.43-4.29h19.31c.29,1.14.43,2.57.43,4.29s-.14,3.08-.43,4.29h4.29c.28,1.14.43,2.57.43,4.29s-.14,3.08-.43,4.29c.28,1.14.43,2.57.43,4.29s-.14,3.08-.43,4.29c.28,1.14.43,2.57.43,4.29s-.14,3.08-.43,4.29h4.29c.28,1.14.43,2.58.43,4.29h0Z"/>
  </g>
  <path class="cls-1" d="m43.82,37.38c0,2.05-.18,3.83-.53,5.34.35,1.43.53,3.21.53,5.34s-.18,3.83-.53,5.34h-4.01c.35,1.43.53,3.21.53,5.34s-.18,3.83-.53,5.34h-6.68c.35,1.43.53,3.21.53,5.34s-.18,3.83-.53,5.34h5.34c.35,1.42.53,3.21.53,5.34s-.18,3.83-.53,5.34h5.34c.35,1.42.53,3.21.53,5.34s-.18,3.83-.53,5.34h-10.69c-.36-1.52-.53-3.3-.53-5.34s.18-3.92.53-5.34h-5.34c-.36-1.52-.53-3.3-.53-5.34s.18-3.92.53-5.34H11.22c-.36-1.51-.53-3.29-.53-5.34s.18-3.92.53-5.34h-6.68c-.36-1.51-.53-3.29-.53-5.34s.18-3.92.53-5.34H.53c-.36-1.51-.53-3.29-.53-5.34s.18-3.92.53-5.34c-.36-1.51-.53-3.29-.53-5.34s.18-3.92.53-5.34c-.36-1.51-.53-3.29-.53-5.34s.18-3.92.53-5.34h4.01c-.36-1.51-.53-3.29-.53-5.34s.18-3.92.53-5.34h6.68c-.36-1.51-.53-3.29-.53-5.34s.18-3.92.53-5.34h21.37c.35,1.43.53,3.21.53,5.34s-.18,3.83-.53,5.34h6.68c.35,1.43.53,3.21.53,5.34s-.18,3.83-.53,5.34h4.01c.35,1.43.53,3.21.53,5.34s-.18,3.83-.53,5.34c.35,1.43.53,3.21.53,5.34h0Zm-11.75,10.69c0-2.14.18-3.92.53-5.34-.36-1.51-.53-3.29-.53-5.34s.18-3.92.53-5.34c-.36-1.51-.53-3.29-.53-5.34s.18-3.92.53-5.34h-4.01c-.36-1.51-.53-3.29-.53-5.34s.18-3.92.53-5.34h-13.36c.35,1.43.53,3.21.53,5.34s-.18,3.83-.53,5.34h-4.01c.35,1.43.53,3.21.53,5.34s-.18,3.83-.53,5.34c.35,1.43.53,3.21.53,5.34s-.18,3.83-.53,5.34c.35,1.43.53,3.21.53,5.34s-.18,3.83-.53,5.34h4.01c.35,1.43.53,3.21.53,5.34s-.18,3.83-.53,5.34h13.36c-.36-1.51-.53-3.29-.53-5.34s.18-3.92.53-5.34h4.01c-.36-1.51-.53-3.29-.53-5.34Z"/>
</svg>