<?xml version="1.0" encoding="UTF-8"?>
<svg id="Layer_1" data-name="Layer 1" xmlns="http://www.w3.org/2000/svg" viewBox="0 0 236.01 281.16">
  <defs>
    <style>
      .cls-1 {
        fill: #231f20;
        stroke-width: 0px;
      }
    </style>
  </defs>
  <path class="cls-1" d="m236.01,54.08c0-4.33-.36-7.93-1.08-10.81h0c.72-3.07,1.08-6.67,1.08-10.82s-.36-7.93-1.08-10.81h-23.25c.72-3.07,1.08-6.68,1.08-10.82s-.36-7.93-1.08-10.81H24.33c-.72,2.9-1.08,6.5-1.08,10.82s.36,7.75,1.08,10.81l-23.25.02c-.72,2.89-1.08,6.49-1.08,10.81s.36,7.75,1.08,10.81h0c-.72,2.89-1.08,6.49-1.08,10.82s.36,7.75,1.08,10.81h0c-.72,2.89-1.08,6.49-1.08,10.82s.36,7.75,1.08,10.81h0c-.72,2.89-1.08,6.49-1.08,10.82s.36,7.75,1.08,10.81c-.72,2.89-1.08,6.49-1.08,10.81s.36,7.75,1.08,10.81c-.72,2.89-1.08,6.49-1.08,10.81s.36,7.75,1.08,10.81c-.72,2.89-1.08,6.49-1.08,10.81s.36,7.75,1.08,10.81c-.72,2.89-1.08,6.49-1.08,10.81s.36,7.75,1.08,10.81h23.25c-.72,2.88-1.08,6.48-1.08,10.81s.36,7.75,1.08,10.81h65.28c-.72,2.88-1.08,6.48-1.08,10.8s.36,7.75,1.08,10.81h24.06c-.72,2.88-1.08,6.48-1.08,10.8s.36,7.75,1.08,10.81h23.52c-.72,2.88-1.08,6.48-1.08,10.8s.36,7.75,1.08,10.81h21.63c.72-3.06,1.08-6.66,1.08-10.81s-.36-7.92-1.08-10.8h.54c.72-3.06,1.08-6.66,1.08-10.81s-.36-7.92-1.08-10.81c.72-3.06,1.08-6.66,1.08-10.81s-.36-7.93-1.08-10.81h52.31c.72-3.07,1.08-6.67,1.08-10.82s-.36-7.93-1.08-10.81h23.25c.72-3.06,1.08-6.67,1.08-10.81s-.36-7.93-1.08-10.81c.72-3.06,1.08-6.66,1.08-10.81s-.36-7.93-1.08-10.81c.72-3.06,1.08-6.66,1.08-10.81s-.36-7.93-1.08-10.81c.72-3.06,1.08-6.66,1.08-10.81s-.36-7.93-1.08-10.81c.72-3.06,1.08-6.66,1.08-10.81s-.36-7.93-1.08-10.81h0c.72-3.07,1.08-6.67,1.08-10.82s-.36-7.93-1.08-10.81h0c.72-3.07,1.08-6.67,1.08-10.82Zm-100.21,162.53h-21.63c-.72-3.06-1.08-6.66-1.08-10.81s.36-7.93,1.08-10.81h21.63c.72,2.89,1.08,6.49,1.08,10.81s-.36,7.75-1.08,10.81Zm47.85-151.39c.72,2.89,1.08,6.49,1.08,10.81s-.36,7.75-1.08,10.81h0c.72,2.89,1.08,6.49,1.08,10.82s-.36,7.75-1.08,10.81c.72,2.89,1.08,6.49,1.08,10.81s-.36,7.75-1.08,10.81h0c.72,2.89,1.08,6.5,1.08,10.82s-.36,7.75-1.08,10.81h-71.37c.72,2.89,1.08,6.49,1.08,10.81s-.36,7.75-1.08,10.81h-21.63c-.72-3.06-1.08-6.66-1.08-10.81s.36-7.93,1.08-10.81c-.72-3.06-1.08-6.66-1.08-10.81s.36-7.93,1.08-10.81h71.37c-.72-3.07-1.08-6.67-1.08-10.82s.36-7.93,1.08-10.81c-.72-3.06-1.08-6.66-1.08-10.81s.36-7.93,1.08-10.81h0c-.72-3.07-1.08-6.67-1.08-10.82s.36-7.93,1.08-10.81h-97.33c.72,2.89,1.08,6.49,1.08,10.81s-.36,7.75-1.08,10.81h0c.72,2.89,1.08,6.49,1.08,10.82s-.36,7.75-1.08,10.81h-21.63c-.72-3.06-1.08-6.66-1.08-10.81s.36-7.93,1.08-10.81h0c-.72-3.07-1.08-6.67-1.08-10.82s.36-7.93,1.08-10.81h0c-.72-3.07-1.08-6.68-1.08-10.83s.36-7.93,1.08-10.81h140.58c.72,2.89,1.08,6.49,1.08,10.81s-.36,7.75-1.08,10.81h0Z"/>
</svg>